# xmcd
#
# Track frame offsets: 
#        150
#        9205
#        18880
#        33313
#        60193
#        81771
#        101159
#        123919
#        140645
#        172065
#        196694
#        221409
#        243128
#        293790
#
# Disc length: 4310 seconds
#
# Revision: 0
# Processed by: cddbd v1.5.2PL0 Copyright (c) Steve Scherf et al.
# Submitted via: ExactAudioCopy v0.95b3
#
DISCID=af10d40e
DTITLE=Jimi Hendrix  - Rockin' The USA Vol.1- Disc 1
DYEAR=1900
DGENRE=
TTITLE0=Introduction
TTITLE1=Sgt Pepper's Lonely Hearts Club Band
TTITLE2=Fire
TTITLE3=Hey Joe
TTITLE4=Foxy Lady
TTITLE5=Wind Cries Mary,The
TTITLE6=Killing Floor
TTITLE7=Little Wing
TTITLE8=Purple Haze
TTITLE9=Rock Me Baby
TTITLE10=Red House
TTITLE11=Foxy Lady
TTITLE12=Like A Rolling Stone
TTITLE13=Purple Haze
EXTD=
EXTT0=
EXTT1=
EXTT2=
EXTT3=
EXTT4=
EXTT5=
EXTT6=
EXTT7=
EXTT8=
EXTT9=
EXTT10=
EXTT11=
EXTT12=
EXTT13=
PLAYORDER=
